<svg xmlns="http://www.w3.org/2000/svg" width="1600" height="900" viewBox="0 0 1600 900">
  <defs><linearGradient id="b" x2="1" y2="1"><stop stop-color="#061a2a"/><stop offset="1" stop-color="#02070d"/></linearGradient><filter id="g"><feGaussianBlur stdDeviation="5" result="b"/><feMerge><feMergeNode in="b"/><feMergeNode in="SourceGraphic"/></feMerge></filter><style>.box{fill:url(#b);stroke:#34dfff;stroke-width:2}.gate{fill:#24110f;stroke:#ffb347;stroke-width:2}.hard{fill:#2a0c14;stroke:#ff4b5c;stroke-width:3}.t{font-family:Segoe UI,Arial,sans-serif;fill:#e8fbff;text-anchor:middle}.h{font-size:28px;font-weight:700}.s{font-size:20px}.a{stroke:#48e8ff;stroke-width:4;fill:none;marker-end:url(#m)}</style><marker id="m" markerWidth="10" markerHeight="10" refX="9" refY="3" orient="auto"><path d="M0 0L10 3L0 6Z" fill="#48e8ff"/></marker></defs>
  <rect width="1600" height="900" fill="#02070d"/>
  <text x="800" y="70" class="t h" font-size="38">DECISION PIPELINE - PRESENT CONTINUOUS</text>
  <g transform="translate(40 130)"><rect class="box" width="250" height="180" rx="18"/><text class="t h" x="125" y="45">DATA</text><text class="t s" x="125" y="84">VIX / VXN / DXY</text><text class="t s" x="125" y="116">SOX / DJT / NQ</text><text class="t s" x="125" y="148">Oil / Gold / Yields</text></g>
  <g transform="translate(340 130)"><rect class="box" width="250" height="180" rx="18"/><text class="t h" x="125" y="45">REGIME</text><text class="t s" x="125" y="84">Risk On / Off</text><text class="t s" x="125" y="116">Wait / Panic</text><text class="t s" x="125" y="148">Asia Router / DSI</text></g>
  <g transform="translate(640 130)"><rect class="box" width="250" height="180" rx="18"/><text class="t h" x="125" y="45">MEMORY</text><text class="t s" x="125" y="84">Carry line</text><text class="t s" x="125" y="116">Omni 3-session</text><text class="t s" x="125" y="148">HC follow-through</text></g>
  <g transform="translate(940 130)"><rect class="box" width="250" height="180" rx="18"/><text class="t h" x="125" y="45">LOCATION</text><text class="t s" x="125" y="84">Session value</text><text class="t s" x="125" y="116">OB / Breaker</text><text class="t s" x="125" y="148">Observer limits</text></g>
  <g transform="translate(1240 130)"><rect class="box" width="250" height="180" rx="18"/><text class="t h" x="125" y="45">TRIGGER</text><text class="t s" x="125" y="84">Reject / Reclaim</text><text class="t s" x="125" y="116">1M / SMC power</text><text class="t s" x="125" y="148">Flow confirmation</text></g>
  <g class="a"><path d="M290 220H330"/><path d="M590 220H630"/><path d="M890 220H930"/><path d="M1190 220H1230"/></g>
  <g transform="translate(180 470)"><rect class="hard" width="300" height="150" rx="20" filter="url(#g)"/><text class="t h" x="150" y="48">HARD WAIT</text><text class="t s" x="150" y="88">WAIT_MODE / PANIC</text><text class="t s" x="150" y="118">No authorization</text></g>
  <g transform="translate(650 470)"><rect class="gate" width="300" height="150" rx="20"/><text class="t h" x="150" y="48">FINAL GATE</text><text class="t s" x="150" y="88">Trend + Session</text><text class="t s" x="150" y="118">Value + No-chase</text></g>
  <g transform="translate(1120 470)"><rect class="box" width="300" height="150" rx="20" filter="url(#g)"/><text class="t h" x="150" y="48">EXECUTION</text><text class="t s" x="150" y="88">Entry + SL</text><text class="t s" x="150" y="118">TP1 / TP2 / TP3</text></g>
  <path class="a" d="M1365 310V400H800V460"/><path class="a" d="M650 545H490"/><path class="a" d="M950 545H1110"/>
  <text x="800" y="745" class="t h">A signal exists only after intersection of permissions.</text>
  <text x="800" y="795" class="t s">Location alone is not direction. Direction alone is not authorization.</text>
</svg>

